<svg width="20" height="20" viewBox="0 0 20 20" fill="none" xmlns="http://www.w3.org/2000/svg">
<path d="M15.8332 3.75H4.1665C3.50346 3.75 2.86758 4.01339 2.39874 4.48223C1.9299 4.95107 1.6665 5.58696 1.6665 6.25V13.75C1.6665 14.413 1.9299 15.0489 2.39874 15.5178C2.86758 15.9866 3.50346 16.25 4.1665 16.25H15.8332C16.4962 16.25 17.1321 15.9866 17.6009 15.5178C18.0698 15.0489 18.3332 14.413 18.3332 13.75V6.25C18.3332 5.58696 18.0698 4.95107 17.6009 4.48223C17.1321 4.01339 16.4962 3.75 15.8332 3.75ZM16.6665 13.75C16.6665 13.971 16.5787 14.183 16.4224 14.3393C16.2661 14.4955 16.0542 14.5833 15.8332 14.5833H4.1665C3.94549 14.5833 3.73353 14.4955 3.57725 14.3393C3.42097 14.183 3.33317 13.971 3.33317 13.75V6.25C3.33317 6.02899 3.42097 5.81702 3.57725 5.66074C3.73353 5.50446 3.94549 5.41667 4.1665 5.41667H15.8332C16.0542 5.41667 16.2661 5.50446 16.4224 5.66074C16.5787 5.81702 16.6665 6.02899 16.6665 6.25V13.75ZM13.3332 8.75C12.8901 8.7531 12.4559 8.87389 12.0748 9.1C11.6953 8.87477 11.2628 8.75405 10.8215 8.7501C10.3801 8.74615 9.94558 8.85912 9.56204 9.07752C9.17849 9.29592 8.8596 9.61197 8.63778 9.99355C8.41595 10.3751 8.2991 10.8086 8.2991 11.25C8.2991 11.6914 8.41595 12.1249 8.63778 12.5065C8.8596 12.888 9.17849 13.2041 9.56204 13.4225C9.94558 13.6409 10.3801 13.7538 10.8215 13.7499C11.2628 13.746 11.6953 13.6252 12.0748 13.4C12.4063 13.5967 12.7788 13.714 13.1632 13.7429C13.5476 13.7718 13.9334 13.7114 14.2906 13.5664C14.6477 13.4215 14.9665 13.1959 15.2221 12.9074C15.4776 12.6188 15.663 12.275 15.7637 11.903C15.8644 11.5309 15.8776 11.1406 15.8025 10.7625C15.7274 10.3845 15.5658 10.0289 15.3305 9.72364C15.0951 9.41836 14.7924 9.17163 14.4459 9.00273C14.0995 8.83383 13.7186 8.74733 13.3332 8.75ZM10.9748 12.0833C10.9277 12.0874 10.8803 12.0874 10.8332 12.0833C10.6122 12.0833 10.4002 11.9955 10.2439 11.8393C10.0876 11.683 9.99984 11.471 9.99984 11.25C9.99984 11.029 10.0876 10.817 10.2439 10.6607C10.4002 10.5045 10.6122 10.4167 10.8332 10.4167C10.8803 10.4126 10.9277 10.4126 10.9748 10.4167C10.7863 10.9333 10.7863 11.5 10.9748 12.0167V12.0833ZM13.3332 12.0833C13.1684 12.0833 13.0072 12.0345 12.8702 11.9429C12.7332 11.8513 12.6263 11.7212 12.5633 11.5689C12.5002 11.4166 12.4837 11.2491 12.5159 11.0874C12.548 10.9258 12.6274 10.7773 12.7439 10.6607C12.8605 10.5442 13.0089 10.4648 13.1706 10.4327C13.3322 10.4005 13.4998 10.417 13.6521 10.4801C13.8043 10.5432 13.9345 10.65 14.0261 10.787C14.1176 10.9241 14.1665 11.0852 14.1665 11.25C14.1665 11.471 14.0787 11.683 13.9224 11.8393C13.7661 11.9955 13.5542 12.0833 13.3332 12.0833Z" fill="#121826"/>
</svg>
