<svg width="20" height="20" viewBox="0 0 20 20" fill="none" xmlns="http://www.w3.org/2000/svg">
<path d="M17.4998 8.33325C17.6093 8.33328 17.7177 8.31174 17.8188 8.26987C17.9199 8.22801 18.0118 8.16662 18.0892 8.08924C18.1665 8.01185 18.2279 7.91997 18.2698 7.81885C18.3117 7.71774 18.3332 7.60936 18.3332 7.49992V4.99992C18.3332 4.82506 18.2783 4.65463 18.176 4.51279C18.0737 4.37095 17.9294 4.26491 17.7635 4.20972L10.2635 1.70972C10.0923 1.65275 9.90733 1.65275 9.73616 1.70972L2.23616 4.20972C2.07025 4.26491 1.92593 4.37095 1.82368 4.51279C1.72142 4.65463 1.66643 4.82506 1.6665 4.99992V7.49992C1.66648 7.60936 1.68801 7.71774 1.72988 7.81885C1.77175 7.91997 1.83313 8.01185 1.91052 8.08924C1.98791 8.16662 2.07978 8.22801 2.1809 8.26987C2.28202 8.31174 2.39039 8.33328 2.49984 8.33325H3.33317V14.3201C2.84712 14.4914 2.42597 14.8088 2.12756 15.2289C1.82915 15.6491 1.66809 16.1513 1.6665 16.6666V18.3333C1.66648 18.4427 1.68801 18.5511 1.72988 18.6522C1.77175 18.7533 1.83313 18.8452 1.91052 18.9226C1.98791 19 2.07978 19.0613 2.1809 19.1032C2.28202 19.1451 2.39039 19.1666 2.49984 19.1666H17.4998C17.6093 19.1666 17.7177 19.1451 17.8188 19.1032C17.9199 19.0613 18.0118 19 18.0892 18.9226C18.1665 18.8452 18.2279 18.7533 18.2698 18.6522C18.3117 18.5511 18.3332 18.4427 18.3332 18.3333V16.6666C18.3316 16.1513 18.1705 15.6491 17.8721 15.2289C17.5737 14.8088 17.1526 14.4914 16.6665 14.3201V8.33325H17.4998ZM16.6665 17.4999H3.33317V16.6666C3.33339 16.4456 3.42126 16.2338 3.57749 16.0776C3.73372 15.9213 3.94556 15.8335 4.1665 15.8333H15.8332C16.0541 15.8335 16.266 15.9213 16.4222 16.0776C16.5784 16.2338 16.6663 16.4456 16.6665 16.6666V17.4999ZM4.99984 14.1666V8.33325H6.6665V14.1666H4.99984ZM8.33317 14.1666V8.33325H11.6665V14.1666H8.33317ZM13.3332 14.1666V8.33325H14.9998V14.1666H13.3332ZM3.33317 6.66658V5.6005L9.99984 3.378L16.6665 5.6005V6.66658H3.33317Z" fill="#121826"/>
</svg>
