<svg width="98" height="20" viewBox="0 0 98 20" fill="none" xmlns="http://www.w3.org/2000/svg">
<path d="M7.86632 16.9584C7.86632 18.6215 6.5531 19.9697 4.93316 19.9697C3.31322 19.9697 2 18.6215 2 16.9584C2 15.2953 3.31322 13.9471 4.93316 13.9471C6.5531 13.9471 7.86632 15.2953 7.86632 16.9584Z" fill="#743EE4"/>
<path d="M9.34361 0L17.8343 15.0982C18.1754 15.7046 17.973 16.4801 17.3823 16.8302L12.0345 20L6.63132 10.3921C4.58508 6.75344 5.79941 2.10076 9.34361 0Z" fill="#743EE4"/>
<path d="M25.088 16V4.16H27.344L32.448 11.712V4.16H34.896V16H32.608L27.536 8.656V16H25.088ZM40.8826 16.16C40.136 16.16 39.4906 16.0373 38.9466 15.792C38.4026 15.536 37.9546 15.2 37.6026 14.784C37.2506 14.3573 36.984 13.8827 36.8026 13.36C36.632 12.8373 36.5466 12.2987 36.5466 11.744C36.5466 11.2107 36.6266 10.688 36.7866 10.176C36.9573 9.65333 37.2133 9.17867 37.5546 8.752C37.9066 8.32533 38.3493 7.98933 38.8826 7.744C39.4266 7.488 40.0666 7.36 40.8026 7.36C41.5813 7.36 42.2693 7.53067 42.8666 7.872C43.4746 8.21333 43.9493 8.72 44.2906 9.392C44.632 10.0533 44.8026 10.8587 44.8026 11.808V12.4H38.9946C39.0266 12.912 39.2026 13.3547 39.5226 13.728C39.8533 14.1013 40.3066 14.288 40.8826 14.288C41.2133 14.288 41.48 14.24 41.6826 14.144C41.896 14.0373 42.0613 13.92 42.1786 13.792C42.296 13.6533 42.376 13.5307 42.4186 13.424C42.4613 13.3173 42.4826 13.264 42.4826 13.264H44.7226C44.7226 13.264 44.696 13.3653 44.6426 13.568C44.6 13.76 44.504 14 44.3546 14.288C44.2053 14.576 43.9866 14.864 43.6986 15.152C43.4213 15.44 43.0533 15.68 42.5946 15.872C42.136 16.064 41.5653 16.16 40.8826 16.16ZM38.9946 10.928H42.4666C42.4346 10.3413 42.2586 9.904 41.9386 9.616C41.6186 9.328 41.224 9.184 40.7546 9.184C40.2853 9.184 39.8853 9.33867 39.5546 9.648C39.224 9.94667 39.0373 10.3733 38.9946 10.928ZM49.0293 16.16C48.4319 16.16 47.9359 16.032 47.5413 15.776C47.1573 15.52 46.8693 15.1787 46.6773 14.752C46.4853 14.3147 46.3893 13.824 46.3893 13.28V7.52H48.8053V12.8C48.8053 13.2053 48.9119 13.536 49.1253 13.792C49.3386 14.0373 49.6533 14.16 50.0693 14.16C50.4213 14.16 50.6986 14.0747 50.9013 13.904C51.1146 13.7333 51.2693 13.5147 51.3653 13.248C51.4613 12.9813 51.5093 12.6987 51.5093 12.4V7.52H53.9413V16H51.5093V14.8H51.4133C51.2319 15.1307 50.9493 15.44 50.5653 15.728C50.1919 16.016 49.6799 16.16 49.0293 16.16ZM55.6355 16V7.52H58.0515V8.752H58.1315C58.2275 8.528 58.3608 8.30933 58.5315 8.096C58.7022 7.88267 58.9368 7.70667 59.2355 7.568C59.5342 7.42933 59.9182 7.36 60.3875 7.36C60.6222 7.36 60.8088 7.376 60.9475 7.408C61.0862 7.42933 61.1555 7.44 61.1555 7.44V9.84C61.1555 9.84 61.0755 9.824 60.9155 9.792C60.7662 9.76 60.5688 9.744 60.3235 9.744C59.5662 9.744 59.0008 9.952 58.6275 10.368C58.2542 10.7733 58.0675 11.44 58.0675 12.368V16H55.6355ZM65.5915 7.36C66.1355 7.36 66.5835 7.45067 66.9355 7.632C67.2875 7.80267 67.5542 7.98933 67.7355 8.192C67.9275 8.39467 68.0448 8.53333 68.0875 8.608H68.2155V7.52H70.6475V16H68.2155V14.912H68.0875C68.0448 14.9867 67.9275 15.1253 67.7355 15.328C67.5542 15.5307 67.2875 15.7227 66.9355 15.904C66.5835 16.0747 66.1355 16.16 65.5915 16.16C64.9622 16.16 64.4128 16.0373 63.9435 15.792C63.4848 15.536 63.1008 15.2 62.7915 14.784C62.4822 14.3573 62.2475 13.8827 62.0875 13.36C61.9382 12.8373 61.8635 12.304 61.8635 11.76C61.8635 11.216 61.9382 10.6827 62.0875 10.16C62.2475 9.63733 62.4822 9.168 62.7915 8.752C63.1008 8.32533 63.4848 7.98933 63.9435 7.744C64.4128 7.488 64.9622 7.36 65.5915 7.36ZM66.2955 9.328C65.8582 9.328 65.4902 9.45067 65.1915 9.696C64.9035 9.93067 64.6848 10.2347 64.5355 10.608C64.3968 10.9813 64.3275 11.3653 64.3275 11.76C64.3275 12.1547 64.3968 12.5387 64.5355 12.912C64.6848 13.2853 64.9035 13.5947 65.1915 13.84C65.4902 14.0747 65.8582 14.192 66.2955 14.192C66.7328 14.192 67.0955 14.0747 67.3835 13.84C67.6822 13.5947 67.9008 13.2853 68.0395 12.912C68.1888 12.5387 68.2635 12.1547 68.2635 11.76C68.2635 11.3653 68.1888 10.9813 68.0395 10.608C67.9008 10.2347 67.6822 9.93067 67.3835 9.696C67.0955 9.45067 66.7328 9.328 66.2955 9.328ZM72.5536 16V3.84H74.9856V16H72.5536ZM78.283 6.368C77.8563 6.368 77.5097 6.23467 77.243 5.968C76.9763 5.69067 76.843 5.36533 76.843 4.992C76.843 4.59733 76.9763 4.26667 77.243 4C77.5097 3.72267 77.8563 3.584 78.283 3.584C78.6883 3.584 79.0297 3.72267 79.307 4C79.5843 4.26667 79.723 4.59733 79.723 4.992C79.723 5.36533 79.5843 5.69067 79.307 5.968C79.0297 6.23467 78.6883 6.368 78.283 6.368ZM77.067 16V7.52H79.499V16H77.067ZM85.3694 16.16C84.708 16.16 84.18 16.064 83.7854 15.872C83.3907 15.6693 83.092 15.4187 82.8894 15.12C82.6867 14.8107 82.5534 14.4853 82.4894 14.144C82.4254 13.8027 82.3934 13.488 82.3934 13.2V9.456H80.9534V7.52H82.3934V5.424H84.8254V7.52H86.6334V9.456H84.8254V13.136C84.8254 13.488 84.916 13.76 85.0974 13.952C85.2894 14.144 85.604 14.24 86.0414 14.24C86.2334 14.24 86.4094 14.224 86.5694 14.192C86.7294 14.16 86.8094 14.144 86.8094 14.144V16.016C86.8094 16.016 86.6654 16.0373 86.3774 16.08C86.0894 16.1333 85.7534 16.16 85.3694 16.16ZM92.372 16.16C91.6253 16.16 90.98 16.0373 90.436 15.792C89.892 15.536 89.444 15.2 89.092 14.784C88.74 14.3573 88.4733 13.8827 88.292 13.36C88.1213 12.8373 88.036 12.2987 88.036 11.744C88.036 11.2107 88.116 10.688 88.276 10.176C88.4467 9.65333 88.7027 9.17867 89.044 8.752C89.396 8.32533 89.8387 7.98933 90.372 7.744C90.916 7.488 91.556 7.36 92.292 7.36C93.0707 7.36 93.7587 7.53067 94.356 7.872C94.964 8.21333 95.4387 8.72 95.78 9.392C96.1213 10.0533 96.292 10.8587 96.292 11.808V12.4H90.484C90.516 12.912 90.692 13.3547 91.012 13.728C91.3427 14.1013 91.796 14.288 92.372 14.288C92.7027 14.288 92.9693 14.24 93.172 14.144C93.3853 14.0373 93.5507 13.92 93.668 13.792C93.7853 13.6533 93.8653 13.5307 93.908 13.424C93.9507 13.3173 93.972 13.264 93.972 13.264H96.212C96.212 13.264 96.1853 13.3653 96.132 13.568C96.0893 13.76 95.9933 14 95.844 14.288C95.6947 14.576 95.476 14.864 95.188 15.152C94.9107 15.44 94.5427 15.68 94.084 15.872C93.6253 16.064 93.0547 16.16 92.372 16.16ZM90.484 10.928H93.956C93.924 10.3413 93.748 9.904 93.428 9.616C93.108 9.328 92.7133 9.184 92.244 9.184C91.7747 9.184 91.3747 9.33867 91.044 9.648C90.7133 9.94667 90.5267 10.3733 90.484 10.928Z" fill="#743EE4"/>
</svg>
