<svg width="20" height="20" viewBox="0 0 20 20" fill="none" xmlns="http://www.w3.org/2000/svg">
<path d="M16.6665 8.62512L11.8498 2.45012C11.6078 2.1982 11.3167 1.99867 10.9945 1.86392C10.6722 1.72916 10.3257 1.66205 9.97645 1.66673C9.62719 1.67142 9.28262 1.74781 8.9641 1.89117C8.64558 2.03453 8.35991 2.2418 8.1248 2.50012L3.33314 8.62512C3.06784 9.03474 2.92608 9.51209 2.9248 10.0001C2.93872 10.468 3.07989 10.9232 3.33314 11.3168L3.38314 11.3751L8.16647 17.5501C8.40198 17.7995 8.68628 17.9977 9.00167 18.1324C9.31707 18.2672 9.65683 18.3356 9.9998 18.3335C10.3544 18.3331 10.7051 18.2589 11.0293 18.1154C11.3536 17.9719 11.6444 17.7623 11.8831 17.5001L16.6665 11.3751C16.9279 10.9621 17.0625 10.4814 17.0536 9.99262C17.0448 9.50385 16.8928 9.02841 16.6165 8.62512H16.6665ZM15.3581 10.4085L10.6331 16.4251C10.4739 16.5718 10.2683 16.6579 10.052 16.6686C9.83581 16.6793 9.6227 16.6137 9.4498 16.4835L4.70814 10.3918C4.63734 10.2729 4.59725 10.1383 4.59147 10.0001C4.5927 9.87066 4.62109 9.74291 4.6748 9.62512L9.3998 3.60845C9.55904 3.46179 9.76468 3.37563 9.98091 3.36497C10.1971 3.35431 10.4102 3.41983 10.5831 3.55012L15.2748 9.61679C15.3614 9.75091 15.4077 9.90711 15.4081 10.0668C15.4025 10.185 15.3742 10.3009 15.3248 10.4085H15.3581Z" fill="#121826"/>
</svg>
